# WaveFront *.obj file (generated by Autodesk ATF)

mtllib zouhawater.mtl

g ボディ3

v 205.000000 5.000000 10.000000
v 15.000000 5.000000 10.000000
v 15.000000 155.000000 10.000000
v 205.000000 155.000000 10.000000
v 15.000000 5.000000 150.000000
v 15.000000 155.000000 150.000000
v 205.000000 5.000000 150.000000
v 205.000000 155.000000 150.000000
vt -9499.999933 -7500.000015 0.000000
vt 9499.999933 -7500.000015 0.000000
vt -9499.999933 7500.000015 0.000000
vt 9499.999933 7500.000015 0.000000
vt -0.000000 1000.000002 0.000000
vt 15000.000030 1000.000002 0.000000
vt -0.000000 15000.000030 0.000000
vt 15000.000030 15000.000030 0.000000
vt 0.000000 1000.000002 0.000000
vt 18999.999866 1000.000002 0.000000
vt 0.000000 15000.000030 0.000000
vt 18999.999866 15000.000030 0.000000
vt 0.000000 1000.000002 0.000000
vt 18999.999866 1000.000002 0.000000
vt 0.000000 15000.000030 0.000000
vt 18999.999866 15000.000030 0.000000
vt 0.000000 1000.000002 0.000000
vt 15000.000030 1000.000002 0.000000
vt 0.000000 15000.000030 0.000000
vt 15000.000030 15000.000030 0.000000
vt -9499.999933 -7500.000015 0.000000
vt 9499.999933 -7500.000015 0.000000
vt -9499.999933 7500.000015 0.000000
vt 9499.999933 7500.000015 0.000000
vn 0.000000 0.000000 -100.000000
vn 0.000000 0.000000 -100.000000
vn 0.000000 0.000000 -100.000000
vn 0.000000 0.000000 -100.000000
vn -100.000000 0.000000 0.000000
vn -100.000000 0.000000 0.000000
vn -100.000000 0.000000 0.000000
vn -100.000000 0.000000 0.000000
vn 0.000000 -100.000000 0.000000
vn 0.000000 -100.000000 0.000000
vn 0.000000 -100.000000 0.000000
vn 0.000000 -100.000000 0.000000
vn 0.000000 100.000000 0.000000
vn 0.000000 100.000000 0.000000
vn 0.000000 100.000000 0.000000
vn 0.000000 100.000000 0.000000
vn 100.000000 0.000000 0.000000
vn 100.000000 0.000000 0.000000
vn 100.000000 0.000000 0.000000
vn 100.000000 0.000000 0.000000
vn 0.000000 0.000000 100.000000
vn 0.000000 0.000000 100.000000
vn 0.000000 0.000000 100.000000
vn 0.000000 0.000000 100.000000
usemtl 鋼_-_サテン
f 1/1/1 2/2/2 4/3/3
f 4/3/3 2/2/2 3/4/4
f 3/5/5 2/6/6 6/7/7
f 6/7/7 2/6/6 5/8/8
f 2/9/9 1/10/10 5/11/11
f 5/11/11 1/10/10 7/12/12
f 4/13/13 3/14/14 8/15/15
f 8/15/15 3/14/14 6/16/16
f 1/17/17 4/18/18 7/19/19
f 7/19/19 4/18/18 8/20/20
f 5/21/21 7/22/22 6/23/23
f 6/23/23 7/22/22 8/24/24
# 8 vertices
# 24 texture params
# 24 normals
# 12 facets

# 1 groups
