# WaveFront *.obj file (generated by Autodesk ATF)

mtllib 9743aaf4-e21e-404b-a2ed-aa5d145c422f.mtl

g Body1

v 659.000000 -75.000000 2000.000000
v 659.000000 -75.000000 500.000000
v 659.000000 75.000000 500.000000
v 659.000000 75.000000 2000.000000
v 805.000000 -75.000000 500.000000
v 805.000000 75.000000 500.000000
v 805.000000 -75.000000 2000.000000
v 805.000000 75.000000 2000.000000
v 1250.000000 400.000000 2000.000000
v -1250.000000 400.000000 2000.000000
v -1250.000000 -400.000000 2000.000000
v 1250.000000 -400.000000 2000.000000
v 1250.000000 -400.000000 0.000000
v 1250.000000 400.000000 0.000000
v -1250.000000 -400.000000 0.000000
v -1250.000000 400.000000 0.000000
vt -50.000000 0.000000 0.000000
vt 100.000000 0.000000 0.000000
vt -50.000000 15.000000 0.000000
vt 100.000000 15.000000 0.000000
vt 65.900000 -7.500000 0.000000
vt 80.500000 -7.500000 0.000000
vt 65.900000 7.500000 0.000000
vt 80.500000 7.500000 0.000000
vt -14.600000 -50.000000 0.000000
vt 0.000000 -50.000000 0.000000
vt -14.600000 100.000000 0.000000
vt -0.000000 100.000000 0.000000
vt -146.400000 100.000000 0.000000
vt -161.000000 100.000000 0.000000
vt -146.400000 -50.000000 0.000000
vt -161.000000 -50.000000 0.000000
vt 80.500000 7.500000 0.000000
vt 80.500000 -7.500000 0.000000
vt 125.000000 -40.000000 0.000000
vt 65.900000 -7.500000 0.000000
vt -125.000000 -40.000000 0.000000
vt 65.900000 7.500000 0.000000
vt -125.000000 40.000000 0.000000
vt 125.000000 40.000000 0.000000
vt -0.000000 100.000000 0.000000
vt -15.000000 100.000000 0.000000
vt 0.000000 -50.000000 0.000000
vt -15.000000 -50.000000 0.000000
vt 0.000000 0.000000 0.000000
vt 80.000000 0.000000 0.000000
vt 0.000000 200.000000 0.000000
vt 80.000000 200.000000 0.000000
vt -0.000000 0.000000 0.000000
vt 250.000000 0.000000 0.000000
vt 0.000000 200.000000 0.000000
vt 250.000000 200.000000 0.000000
vt -0.000000 0.000000 0.000000
vt 80.000000 0.000000 0.000000
vt -0.000000 200.000000 0.000000
vt 80.000000 200.000000 0.000000
vt 0.000000 0.000000 0.000000
vt 250.000000 0.000000 0.000000
vt -0.000000 200.000000 0.000000
vt 250.000000 200.000000 0.000000
vt 125.000000 40.000000 0.000000
vt -125.000000 40.000000 0.000000
vt 125.000000 -40.000000 0.000000
vt -125.000000 -40.000000 0.000000
vn 0.100000 0.000000 0.000000
vn 0.100000 0.000000 0.000000
vn 0.100000 0.000000 0.000000
vn 0.100000 0.000000 0.000000
vn 0.000000 0.000000 0.100000
vn 0.000000 0.000000 0.100000
vn 0.000000 0.000000 0.100000
vn 0.000000 0.000000 0.100000
vn -0.000000 0.100000 -0.000000
vn -0.000000 0.100000 -0.000000
vn -0.000000 0.100000 -0.000000
vn -0.000000 0.100000 -0.000000
vn 0.000000 -0.100000 0.000000
vn 0.000000 -0.100000 0.000000
vn 0.000000 -0.100000 0.000000
vn 0.000000 -0.100000 0.000000
vn 0.000000 0.000000 0.100000
vn 0.000000 0.000000 0.100000
vn 0.000000 0.000000 0.100000
vn 0.000000 0.000000 0.100000
vn 0.000000 0.000000 0.100000
vn 0.000000 0.000000 0.100000
vn 0.000000 0.000000 0.100000
vn 0.000000 0.000000 0.100000
vn -0.100000 0.000000 -0.000000
vn -0.100000 0.000000 -0.000000
vn -0.100000 0.000000 -0.000000
vn -0.100000 0.000000 -0.000000
vn 0.100000 0.000000 0.000000
vn 0.100000 0.000000 0.000000
vn 0.100000 0.000000 0.000000
vn 0.100000 0.000000 0.000000
vn 0.000000 -0.100000 0.000000
vn 0.000000 -0.100000 0.000000
vn 0.000000 -0.100000 0.000000
vn 0.000000 -0.100000 0.000000
vn -0.100000 0.000000 0.000000
vn -0.100000 0.000000 0.000000
vn -0.100000 0.000000 0.000000
vn -0.100000 0.000000 0.000000
vn 0.000000 0.100000 0.000000
vn 0.000000 0.100000 0.000000
vn 0.000000 0.100000 0.000000
vn 0.000000 0.100000 0.000000
vn -0.000000 0.000000 -0.100000
vn -0.000000 0.000000 -0.100000
vn -0.000000 0.000000 -0.100000
vn -0.000000 0.000000 -0.100000
usemtl Steel_-_Satin
f 1/1/1 2/2/2 4/3/3
f 4/3/3 2/2/2 3/4/4
f 2/5/5 5/6/6 3/7/7
f 3/7/7 5/6/6 6/8/8
f 1/9/9 7/10/10 2/11/11
f 2/11/11 7/10/10 5/12/12
f 3/13/13 6/14/14 4/15/15
f 4/15/15 6/14/14 8/16/16
f 8/17/17 7/18/18 12/19/19
f 12/19/19 7/18/18 1/20/20
f 12/19/19 1/20/20 11/21/21
f 11/21/21 1/20/20 4/22/22
f 11/21/21 4/22/22 10/23/23
f 10/23/23 4/22/22 9/24/24
f 9/24/24 4/22/22 8/17/17
f 9/24/24 8/17/17 12/19/19
f 6/25/25 5/26/26 8/27/27
f 8/27/27 5/26/26 7/28/28
f 13/29/29 14/30/30 12/31/31
f 12/31/31 14/30/30 9/32/32
f 15/33/33 13/34/34 11/35/35
f 11/35/35 13/34/34 12/36/36
f 16/37/37 15/38/38 10/39/39
f 10/39/39 15/38/38 11/40/40
f 14/41/41 16/42/42 9/43/43
f 9/43/43 16/42/42 10/44/44
f 16/45/45 14/46/46 15/47/47
f 15/47/47 14/46/46 13/48/48
# 16 vertices
# 48 texture params
# 48 normals
# 28 facets

# 1 groups
