# WaveFront *.obj file (generated by Autodesk ATF)

mtllib 887c482b-45b5-4840-9450-72de880564b6.mtl

g Body1

v 805.000000 -75.000000 2000.000000
v -805.000000 -75.000000 2000.000000
v -805.000000 75.000000 2000.000000
v 805.000000 75.000000 2000.000000
v 1250.000000 400.000000 2000.000000
v -1250.000000 400.000000 2000.000000
v -1250.000000 -400.000000 2000.000000
v 1250.000000 -400.000000 2000.000000
v 805.000000 -75.000000 500.000000
v -805.000000 -75.000000 500.000000
v 805.000000 75.000000 500.000000
v -805.000000 75.000000 500.000000
v 1250.000000 -400.000000 0.000000
v 1250.000000 400.000000 0.000000
v -1250.000000 -400.000000 0.000000
v -1250.000000 400.000000 0.000000
vt 80.500000 7.500000 0.000000
vt 80.500000 -7.500000 0.000000
vt 125.000000 -40.000000 0.000000
vt -80.500000 -7.500000 0.000000
vt -125.000000 -40.000000 0.000000
vt -80.500000 7.500000 0.000000
vt -125.000000 40.000000 0.000000
vt 125.000000 40.000000 0.000000
vt -0.000000 100.000000 0.000000
vt -161.000000 100.000000 0.000000
vt 0.000000 -50.000000 0.000000
vt -161.000000 -50.000000 0.000000
vt -0.000000 100.000000 0.000000
vt -15.000000 100.000000 0.000000
vt 0.000000 -50.000000 0.000000
vt -15.000000 -50.000000 0.000000
vt -0.000000 100.000000 0.000000
vt -161.000000 100.000000 0.000000
vt -0.000000 -50.000000 0.000000
vt -161.000000 -50.000000 0.000000
vt -0.000000 100.000000 0.000000
vt -15.000000 100.000000 0.000000
vt -0.000000 -50.000000 0.000000
vt -15.000000 -50.000000 0.000000
vt -80.500000 -7.500000 0.000000
vt 80.500000 -7.500000 0.000000
vt -80.500000 7.500000 0.000000
vt 80.500000 7.500000 0.000000
vt 0.000000 0.000000 0.000000
vt 80.000000 0.000000 0.000000
vt 0.000000 200.000000 0.000000
vt 80.000000 200.000000 0.000000
vt -0.000000 0.000000 0.000000
vt 250.000000 0.000000 0.000000
vt 0.000000 200.000000 0.000000
vt 250.000000 200.000000 0.000000
vt -0.000000 0.000000 0.000000
vt 80.000000 0.000000 0.000000
vt -0.000000 200.000000 0.000000
vt 80.000000 200.000000 0.000000
vt 0.000000 0.000000 0.000000
vt 250.000000 0.000000 0.000000
vt -0.000000 200.000000 0.000000
vt 250.000000 200.000000 0.000000
vt 125.000000 40.000000 0.000000
vt -125.000000 40.000000 0.000000
vt 125.000000 -40.000000 0.000000
vt -125.000000 -40.000000 0.000000
vn 0.000000 0.000000 0.100000
vn 0.000000 0.000000 0.100000
vn 0.000000 0.000000 0.100000
vn 0.000000 0.000000 0.100000
vn 0.000000 0.000000 0.100000
vn 0.000000 0.000000 0.100000
vn 0.000000 0.000000 0.100000
vn 0.000000 0.000000 0.100000
vn -0.000000 0.100000 -0.000000
vn -0.000000 0.100000 -0.000000
vn -0.000000 0.100000 -0.000000
vn -0.000000 0.100000 -0.000000
vn -0.100000 0.000000 -0.000000
vn -0.100000 0.000000 -0.000000
vn -0.100000 0.000000 -0.000000
vn -0.100000 0.000000 -0.000000
vn 0.000000 -0.100000 0.000000
vn 0.000000 -0.100000 0.000000
vn 0.000000 -0.100000 0.000000
vn 0.000000 -0.100000 0.000000
vn 0.100000 0.000000 0.000000
vn 0.100000 0.000000 0.000000
vn 0.100000 0.000000 0.000000
vn 0.100000 0.000000 0.000000
vn 0.000000 0.000000 0.100000
vn 0.000000 0.000000 0.100000
vn 0.000000 0.000000 0.100000
vn 0.000000 0.000000 0.100000
vn 0.100000 0.000000 0.000000
vn 0.100000 0.000000 0.000000
vn 0.100000 0.000000 0.000000
vn 0.100000 0.000000 0.000000
vn 0.000000 -0.100000 0.000000
vn 0.000000 -0.100000 0.000000
vn 0.000000 -0.100000 0.000000
vn 0.000000 -0.100000 0.000000
vn -0.100000 0.000000 0.000000
vn -0.100000 0.000000 0.000000
vn -0.100000 0.000000 0.000000
vn -0.100000 0.000000 0.000000
vn 0.000000 0.100000 0.000000
vn 0.000000 0.100000 0.000000
vn 0.000000 0.100000 0.000000
vn 0.000000 0.100000 0.000000
vn -0.000000 0.000000 -0.100000
vn -0.000000 0.000000 -0.100000
vn -0.000000 0.000000 -0.100000
vn -0.000000 0.000000 -0.100000
usemtl Steel_-_Satin
f 4/1/1 1/2/2 8/3/3
f 8/3/3 1/2/2 2/4/4
f 8/3/3 2/4/4 7/5/5
f 7/5/5 2/4/4 3/6/6
f 7/5/5 3/6/6 6/7/7
f 6/7/7 3/6/6 4/1/1
f 6/7/7 4/1/1 5/8/8
f 5/8/8 4/1/1 8/3/3
f 9/9/9 10/10/10 1/11/11
f 1/11/11 10/10/10 2/12/12
f 11/13/13 9/14/14 4/15/15
f 4/15/15 9/14/14 1/16/16
f 12/17/17 11/18/18 3/19/19
f 3/19/19 11/18/18 4/20/20
f 10/21/21 12/22/22 2/23/23
f 2/23/23 12/22/22 3/24/24
f 10/25/25 9/26/26 12/27/27
f 12/27/27 9/26/26 11/28/28
f 13/29/29 14/30/30 8/31/31
f 8/31/31 14/30/30 5/32/32
f 15/33/33 13/34/34 7/35/35
f 7/35/35 13/34/34 8/36/36
f 16/37/37 15/38/38 6/39/39
f 6/39/39 15/38/38 7/40/40
f 14/41/41 16/42/42 5/43/43
f 5/43/43 16/42/42 6/44/44
f 16/45/45 14/46/46 15/47/47
f 15/47/47 14/46/46 13/48/48
# 16 vertices
# 48 texture params
# 48 normals
# 28 facets

# 1 groups
