# WaveFront *.obj file (generated by Autodesk ATF)

mtllib wavetank.mtl

g ボディ6

v 0.150000 0.500000 1.259808
v 0.000000 0.500000 1.000000
v 0.000000 0.600000 1.000000
v 0.150000 0.600000 1.259808
v -0.150000 0.500000 1.259808
v -0.150000 0.600000 1.259808
v -5.750000 0.600000 1.000000
v -5.750000 0.500000 1.000000
v -5.900000 0.500000 1.259808
v -5.900000 0.600000 1.259808
v -5.600000 0.500000 1.259808
v -5.600000 0.600000 1.259808
v 5.680000 0.500000 1.000000
v 5.680000 0.600000 1.000000
v 5.530000 0.500000 1.259808
v 5.530000 0.600000 1.259808
v 5.830000 0.500000 1.259808
v 5.830000 0.600000 1.259808
v 10.000000 -0.500000 0.155400
v 10.000000 0.500000 0.155400
v 0.000000 0.500000 0.155400
v 0.000000 -0.500000 0.155400
v 0.000000 0.500000 0.000000
v 0.000000 -0.500000 0.000000
v 10.000000 0.500000 1.000000
v -15.000000 0.500000 1.000000
v -15.000000 0.500000 0.000000
v 10.000000 -0.500000 1.000000
v -15.000000 -0.500000 0.000000
v -15.000000 -0.500000 1.000000
v -15.100000 0.600000 1.000000
v -15.100000 -0.600000 1.000000
v 10.100000 -0.600000 1.000000
v 10.100000 0.600000 1.000000
v 10.100000 -0.600000 -0.100000
v 10.100000 0.600000 -0.100000
v -15.100000 0.600000 -0.100000
v -15.100000 -0.600000 -0.100000
vt 0.000000 0.000000 0.000000
vt 30.000000 0.000000 0.000000
vt 0.000000 10.000000 0.000000
vt 30.000000 10.000000 0.000000
vt 0.000000 0.000000 0.000000
vt 30.000000 0.000000 0.000000
vt 0.000000 10.000000 0.000000
vt 30.000000 10.000000 0.000000
vt 0.000000 0.000000 0.000000
vt 30.000000 0.000000 0.000000
vt 0.000000 10.000000 0.000000
vt 30.000000 10.000000 0.000000
vt -12.990381 3.500000 0.000000
vt 12.990381 -11.500000 0.000000
vt 12.990381 18.500000 0.000000
vt -12.990381 -11.500000 0.000000
vt 12.990381 3.500000 0.000000
vt -12.990381 18.500000 0.000000
vt 250.000000 60.000000 0.000000
vt -325.000000 60.000000 0.000000
vt 250.000000 50.000000 0.000000
vt -325.000000 50.000000 0.000000
vt 0.000000 0.000000 0.000000
vt 30.000000 0.000000 0.000000
vt 0.000000 10.000000 0.000000
vt 30.000000 10.000000 0.000000
vt -0.000000 0.000000 0.000000
vt 30.000000 0.000000 0.000000
vt -0.000000 10.000000 0.000000
vt 30.000000 10.000000 0.000000
vt 0.000000 0.000000 0.000000
vt 30.000000 0.000000 0.000000
vt 0.000000 10.000000 0.000000
vt 30.000000 10.000000 0.000000
vt 12.990381 -586.500000 0.000000
vt 12.990381 -556.500000 0.000000
vt -12.990381 -571.500000 0.000000
vt -12.990381 -556.500000 0.000000
vt -12.990381 -586.500000 0.000000
vt 12.990381 -571.500000 0.000000
vt 250.000000 50.000000 0.000000
vt 818.000000 50.000000 0.000000
vt 250.000000 60.000000 0.000000
vt 818.000000 60.000000 0.000000
vt 0.000000 0.000000 0.000000
vt 30.000000 0.000000 0.000000
vt 0.000000 10.000000 0.000000
vt 30.000000 10.000000 0.000000
vt -0.000000 0.000000 0.000000
vt 30.000000 0.000000 0.000000
vt -0.000000 10.000000 0.000000
vt 30.000000 10.000000 0.000000
vt 0.000000 0.000000 0.000000
vt 30.000000 0.000000 0.000000
vt 0.000000 10.000000 0.000000
vt 30.000000 10.000000 0.000000
vt 12.990381 556.500000 0.000000
vt 12.990381 586.500000 0.000000
vt -12.990381 571.500000 0.000000
vt -12.990381 586.500000 0.000000
vt -12.990381 556.500000 0.000000
vt 12.990381 571.500000 0.000000
vt 1000.000000 50.000000 0.000000
vt 0.000000 50.000000 0.000000
vt 1000.000000 -50.000000 0.000000
vt 0.000000 -50.000000 0.000000
vt 15.540000 50.000000 0.000000
vt 0.000000 50.000000 0.000000
vt 15.540000 -50.000000 0.000000
vt 0.000000 -50.000000 0.000000
vt 1500.000000 0.000000 0.000000
vt 1500.000000 15.540000 0.000000
vt 0.000000 0.000000 0.000000
vt 925.000000 100.000000 0.000000
vt 0.000000 100.000000 0.000000
vt 2499.999999 15.540000 0.000000
vt 2067.999999 100.000000 0.000000
vt 1500.000000 100.000000 0.000000
vt 2499.999999 100.000000 0.000000
vt 0.000000 15.540000 0.000000
vt 100.000000 15.540000 0.000000
vt 0.000000 100.000000 0.000000
vt 100.000000 100.000000 0.000000
vt 0.000000 0.000000 0.000000
vt 100.000000 0.000000 0.000000
vt 0.000000 100.000000 0.000000
vt 100.000000 100.000000 0.000000
vt 1000.000000 0.000000 0.000000
vt 2499.999999 0.000000 0.000000
vt 1000.000000 15.540000 0.000000
vt 2499.999999 100.000000 0.000000
vt -0.000000 100.000000 0.000000
vt -0.000000 15.540000 0.000000
vt -325.000000 50.000000 0.000000
vt -325.000000 60.000000 0.000000
vt -1250.000000 50.000000 0.000000
vt -1260.000000 60.000000 0.000000
vt -1260.000000 -60.000000 0.000000
vt -1250.000000 -50.000000 0.000000
vt 1260.000000 -60.000000 0.000000
vt 1250.000000 -50.000000 0.000000
vt 1250.000000 50.000000 0.000000
vt 1260.000000 60.000000 0.000000
vt 818.000000 60.000000 0.000000
vt 818.000000 50.000000 0.000000
vt 120.000000 10.000000 0.000000
vt 0.000000 10.000000 0.000000
vt 120.000000 -100.000000 0.000000
vt 0.000000 -100.000000 0.000000
vt 2519.999999 -100.000000 0.000000
vt 2519.999999 10.000000 0.000000
vt 2077.999999 -100.000000 0.000000
vt 1510.000000 -100.000000 0.000000
vt 0.000000 10.000000 0.000000
vt 935.000000 -100.000000 0.000000
vt 0.000000 -100.000000 0.000000
vt 120.000000 10.000000 0.000000
vt 0.000000 10.000000 0.000000
vt 120.000000 -100.000000 0.000000
vt 0.000000 -100.000000 0.000000
vt 2519.999999 10.000000 0.000000
vt 0.000000 10.000000 0.000000
vt 2519.999999 -100.000000 0.000000
vt 0.000000 -100.000000 0.000000
vt 250.000000 50.000000 0.000000
vt -1250.000000 50.000000 0.000000
vt 250.000000 -50.000000 0.000000
vt -1250.000000 -50.000000 0.000000
vt -1260.000000 -60.000000 0.000000
vt 1260.000000 -60.000000 0.000000
vt -1260.000000 60.000000 0.000000
vt 1260.000000 60.000000 0.000000
vn 86.602540 0.000000 -50.000000
vn 86.602540 0.000000 -50.000000
vn 86.602540 0.000000 -50.000000
vn 86.602540 0.000000 -50.000000
vn 0.000000 -0.000000 100.000000
vn 0.000000 -0.000000 100.000000
vn 0.000000 -0.000000 100.000000
vn 0.000000 -0.000000 100.000000
vn -86.602540 0.000000 -50.000000
vn -86.602540 0.000000 -50.000000
vn -86.602540 0.000000 -50.000000
vn -86.602540 0.000000 -50.000000
vn 0.000000 100.000000 0.000000
vn 0.000000 100.000000 0.000000
vn 0.000000 100.000000 0.000000
vn 0.000000 -100.000000 0.000000
vn 0.000000 -100.000000 0.000000
vn 0.000000 -100.000000 0.000000
vn 0.000000 0.000000 100.000000
vn 0.000000 0.000000 100.000000
vn 0.000000 0.000000 100.000000
vn 0.000000 0.000000 100.000000
vn -86.602540 0.000000 -50.000000
vn -86.602540 0.000000 -50.000000
vn -86.602540 0.000000 -50.000000
vn -86.602540 0.000000 -50.000000
vn 86.602540 0.000000 -50.000000
vn 86.602540 0.000000 -50.000000
vn 86.602540 0.000000 -50.000000
vn 86.602540 0.000000 -50.000000
vn 0.000000 -0.000000 100.000000
vn 0.000000 -0.000000 100.000000
vn 0.000000 -0.000000 100.000000
vn 0.000000 -0.000000 100.000000
vn 0.000000 100.000000 0.000000
vn 0.000000 100.000000 0.000000
vn 0.000000 100.000000 0.000000
vn 0.000000 -100.000000 0.000000
vn 0.000000 -100.000000 0.000000
vn 0.000000 -100.000000 0.000000
vn 0.000000 0.000000 100.000000
vn 0.000000 0.000000 100.000000
vn -86.602540 0.000000 -50.000000
vn -86.602540 0.000000 -50.000000
vn -86.602540 0.000000 -50.000000
vn -86.602540 0.000000 -50.000000
vn 86.602540 0.000000 -50.000000
vn 86.602540 0.000000 -50.000000
vn 86.602540 0.000000 -50.000000
vn 86.602540 0.000000 -50.000000
vn 0.000000 -0.000000 100.000000
vn 0.000000 -0.000000 100.000000
vn 0.000000 -0.000000 100.000000
vn 0.000000 -0.000000 100.000000
vn 0.000000 100.000000 0.000000
vn 0.000000 100.000000 0.000000
vn 0.000000 100.000000 0.000000
vn 0.000000 -100.000000 0.000000
vn 0.000000 -100.000000 0.000000
vn 0.000000 -100.000000 0.000000
vn 0.000000 0.000000 100.000000
vn 0.000000 0.000000 100.000000
vn 0.000000 0.000000 100.000000
vn 0.000000 0.000000 100.000000
vn -100.000000 0.000000 0.000000
vn -100.000000 0.000000 0.000000
vn -100.000000 0.000000 0.000000
vn -100.000000 0.000000 0.000000
vn 0.000000 -100.000000 0.000000
vn 0.000000 -100.000000 0.000000
vn 0.000000 -100.000000 0.000000
vn 0.000000 -100.000000 0.000000
vn 0.000000 -100.000000 0.000000
vn 0.000000 -100.000000 0.000000
vn -100.000000 0.000000 0.000000
vn -100.000000 0.000000 0.000000
vn -100.000000 0.000000 0.000000
vn -100.000000 0.000000 0.000000
vn 100.000000 0.000000 0.000000
vn 100.000000 0.000000 0.000000
vn 100.000000 0.000000 0.000000
vn 100.000000 0.000000 0.000000
vn 0.000000 100.000000 0.000000
vn 0.000000 100.000000 0.000000
vn 0.000000 100.000000 0.000000
vn 0.000000 100.000000 0.000000
vn 0.000000 100.000000 0.000000
vn 0.000000 100.000000 0.000000
vn 0.000000 0.000000 100.000000
vn 0.000000 0.000000 100.000000
vn 0.000000 0.000000 100.000000
vn 0.000000 0.000000 100.000000
vn 0.000000 0.000000 100.000000
vn 0.000000 0.000000 100.000000
vn 0.000000 0.000000 100.000000
vn 0.000000 0.000000 100.000000
vn 100.000000 0.000000 0.000000
vn 100.000000 0.000000 0.000000
vn 100.000000 0.000000 0.000000
vn 100.000000 0.000000 0.000000
vn 0.000000 100.000000 0.000000
vn 0.000000 100.000000 0.000000
vn 0.000000 100.000000 0.000000
vn 0.000000 100.000000 0.000000
vn -100.000000 0.000000 0.000000
vn -100.000000 0.000000 0.000000
vn -100.000000 0.000000 0.000000
vn -100.000000 0.000000 0.000000
vn 0.000000 -100.000000 0.000000
vn 0.000000 -100.000000 0.000000
vn 0.000000 -100.000000 0.000000
vn 0.000000 -100.000000 0.000000
vn 0.000000 -0.000000 100.000000
vn 0.000000 -0.000000 100.000000
vn 0.000000 -0.000000 100.000000
vn 0.000000 -0.000000 100.000000
vn 0.000000 0.000000 -100.000000
vn 0.000000 0.000000 -100.000000
vn 0.000000 0.000000 -100.000000
vn 0.000000 0.000000 -100.000000
usemtl 鋼_-_サテン
f 1/1/1 2/2/2 4/3/3
f 4/3/3 2/2/2 3/4/4
f 5/5/5 1/6/6 6/7/7
f 6/7/7 1/6/6 4/8/8
f 2/9/9 5/10/10 3/11/11
f 3/11/11 5/10/10 6/12/12
f 3/13/13 6/14/14 4/15/15
f 5/16/16 2/17/17 1/18/18
f 3/19/19 7/20/20 2/21/21
f 2/21/21 7/20/20 8/22/22
f 8/23/23 9/24/24 7/25/25
f 7/25/25 9/24/24 10/26/26
f 11/27/27 8/28/28 12/29/29
f 12/29/29 8/28/28 7/30/30
f 9/31/31 11/32/32 10/33/33
f 10/33/33 11/32/32 12/34/34
f 10/35/35 12/36/36 7/37/37
f 11/38/38 9/39/39 8/40/40
f 2/41/21 13/42/41 3/43/19
f 3/43/19 13/42/41 14/44/42
f 13/45/43 15/46/44 14/47/45
f 14/47/45 15/46/44 16/48/46
f 17/49/47 13/50/48 18/51/49
f 18/51/49 13/50/48 14/52/50
f 15/53/51 17/54/52 16/55/53
f 16/55/53 17/54/52 18/56/54
f 16/57/55 18/58/56 14/59/57
f 17/60/58 15/61/59 13/62/60
f 20/63/61 21/64/62 19/65/63
f 19/65/63 21/64/62 22/66/64
f 21/67/65 23/68/66 22/69/67
f 22/69/67 23/68/66 24/70/68
f 23/71/69 21/72/70 27/73/71
f 27/73/71 21/72/70 8/74/40
f 27/73/71 8/74/40 26/75/72
f 20/76/73 13/77/60 21/72/70
f 21/72/70 13/77/60 2/78/17
f 21/72/70 2/78/17 8/74/40
f 20/76/73 25/79/74 13/77/60
f 20/80/75 19/81/76 25/82/77
f 25/82/77 19/81/76 28/83/78
f 29/84/79 27/85/80 30/86/81
f 30/86/81 27/85/80 26/87/82
f 24/88/83 29/89/84 22/90/85
f 22/90/85 29/89/84 30/91/86
f 22/90/85 30/91/86 28/92/87
f 28/92/87 19/93/88 22/90/85
f 8/94/22 7/95/20 26/96/89
f 26/96/89 7/95/20 31/97/90
f 26/96/89 31/97/90 32/98/91
f 26/96/89 32/98/91 30/99/92
f 30/99/92 32/98/91 33/100/93
f 30/99/92 33/100/93 28/101/94
f 28/101/94 33/100/93 25/102/95
f 25/102/95 33/100/93 34/103/96
f 25/102/95 34/103/96 14/104/42
f 14/104/42 13/105/41 25/102/95
f 35/106/97 36/107/98 33/108/99
f 33/108/99 36/107/98 34/109/100
f 34/110/101 36/111/102 14/112/57
f 14/112/57 36/111/102 3/113/13
f 3/113/13 36/111/102 37/114/103
f 3/113/13 37/114/103 7/115/37
f 7/115/37 37/114/103 31/116/104
f 37/117/105 38/118/106 31/119/107
f 31/119/107 38/118/106 32/120/108
f 38/121/109 35/122/110 32/123/111
f 32/123/111 35/122/110 33/124/112
f 23/125/113 27/126/114 24/127/115
f 24/127/115 27/126/114 29/128/116
f 35/129/117 38/130/118 36/131/119
f 36/131/119 38/130/118 37/132/120
# 38 vertices
# 132 texture params
# 120 normals
# 72 facets

# 1 groups
