# WaveFront *.obj file (generated by Autodesk ATF)

mtllib ボディ8.mtl

g ボディ8

v -13.000000 -0.500000 0.000000
v 0.000000 -0.500000 0.000000
v 0.000000 -0.500000 0.155400
v 1.000000 -0.500000 0.155400
v 1.000000 -0.500000 0.250000
v -13.000000 -0.500000 0.250000
v 0.000000 0.500000 0.000000
v 0.000000 0.500000 0.155400
v 1.000000 0.500000 0.155400
v 1.000000 0.500000 0.250000
v -13.000000 0.500000 0.250000
v -13.000000 0.500000 0.000000
vt 12.500000 600.000000 0.000000
vt -3.040000 600.000000 0.000000
vt 12.500000 -700.000000 0.000000
vt -12.500000 -700.000000 0.000000
vt -12.500000 700.000000 0.000000
vt -3.040000 700.000000 0.000000
vt 15.540000 50.000000 0.000000
vt -0.000000 50.000000 0.000000
vt 15.540000 -50.000000 0.000000
vt 0.000000 -50.000000 0.000000
vt 100.000000 50.000000 0.000000
vt -0.000000 50.000000 0.000000
vt 100.000000 -50.000000 0.000000
vt 0.000000 -50.000000 0.000000
vt 9.460000 50.000000 0.000000
vt -0.000000 50.000000 0.000000
vt 9.460000 -50.000000 0.000000
vt 0.000000 -50.000000 0.000000
vt 1400.000000 50.000000 0.000000
vt 0.000000 50.000000 0.000000
vt 1400.000000 -50.000000 0.000000
vt 0.000000 -50.000000 0.000000
vt 25.000000 50.000000 0.000000
vt 0.000000 50.000000 0.000000
vt 25.000000 -50.000000 0.000000
vt 0.000000 -50.000000 0.000000
vt 1300.000000 50.000000 0.000000
vt 0.000000 50.000000 0.000000
vt 1300.000000 -50.000000 0.000000
vt 0.000000 -50.000000 0.000000
vt -12.500000 600.000000 0.000000
vt -12.500000 -700.000000 0.000000
vt 3.040000 600.000000 0.000000
vt 12.500000 -700.000000 0.000000
vt 12.500000 700.000000 0.000000
vt 3.040000 700.000000 0.000000
vn 0.000000 -100.000000 0.000000
vn 0.000000 -100.000000 0.000000
vn 0.000000 -100.000000 0.000000
vn 0.000000 -100.000000 0.000000
vn 0.000000 -100.000000 0.000000
vn 0.000000 -100.000000 0.000000
vn 100.000000 0.000000 0.000000
vn 100.000000 0.000000 0.000000
vn 100.000000 0.000000 0.000000
vn 100.000000 0.000000 0.000000
vn 0.000000 0.000000 -100.000000
vn 0.000000 0.000000 -100.000000
vn 0.000000 0.000000 -100.000000
vn 0.000000 0.000000 -100.000000
vn 100.000000 0.000000 0.000000
vn 100.000000 0.000000 0.000000
vn 100.000000 0.000000 0.000000
vn 100.000000 0.000000 0.000000
vn 0.000000 -0.000000 100.000000
vn 0.000000 -0.000000 100.000000
vn 0.000000 -0.000000 100.000000
vn 0.000000 -0.000000 100.000000
vn -100.000000 0.000000 0.000000
vn -100.000000 0.000000 0.000000
vn -100.000000 0.000000 0.000000
vn -100.000000 0.000000 0.000000
vn 0.000000 0.000000 -100.000000
vn 0.000000 0.000000 -100.000000
vn 0.000000 0.000000 -100.000000
vn 0.000000 0.000000 -100.000000
vn 0.000000 100.000000 0.000000
vn 0.000000 100.000000 0.000000
vn 0.000000 100.000000 0.000000
vn 0.000000 100.000000 0.000000
vn 0.000000 100.000000 0.000000
vn 0.000000 100.000000 0.000000
usemtl 鋼_-_サテン
f 2/1/1 3/2/2 1/3/3
f 1/3/3 3/2/2 6/4/4
f 6/4/4 3/2/2 5/5/5
f 5/5/5 3/2/2 4/6/6
f 7/7/7 8/8/8 2/9/9
f 2/9/9 8/8/8 3/10/10
f 8/11/11 9/12/12 3/13/13
f 3/13/13 9/12/12 4/14/14
f 9/15/15 10/16/16 4/17/17
f 4/17/17 10/16/16 5/18/18
f 10/19/19 11/20/20 5/21/21
f 5/21/21 11/20/20 6/22/22
f 11/23/23 12/24/24 6/25/25
f 6/25/25 12/24/24 1/26/26
f 12/27/27 7/28/28 1/29/29
f 1/29/29 7/28/28 2/30/30
f 7/31/31 12/32/32 8/33/33
f 8/33/33 12/32/32 11/34/34
f 8/33/33 11/34/34 10/35/35
f 10/35/35 9/36/36 8/33/33
# 12 vertices
# 36 texture params
# 36 normals
# 20 facets

# 1 groups
