solid ASCII
  facet normal 0.000000e+00 1.000000e+00 0.000000e+00
    outer loop
      vertex   1.280497e-01 -2.090608e-02 1.200414e-01
      vertex   1.280497e-01 -2.090608e-02 8.175771e-02
      vertex   -5.195025e-02 -2.090608e-02 1.200414e-01
    endloop
  endfacet
  facet normal 0.000000e+00 1.000000e+00 0.000000e+00
    outer loop
      vertex   -5.195025e-02 -2.090608e-02 1.200414e-01
      vertex   1.280497e-01 -2.090608e-02 8.175771e-02
      vertex   -5.195025e-02 -2.090608e-02 8.175771e-02
    endloop
  endfacet
  facet normal -1.000000e+00 0.000000e+00 0.000000e+00
    outer loop
      vertex   -5.195025e-02 -4.706787e-02 8.175771e-02
      vertex   -5.195025e-02 -4.706787e-02 1.200414e-01
      vertex   -5.195025e-02 -2.090608e-02 8.175771e-02
    endloop
  endfacet
  facet normal -1.000000e+00 0.000000e+00 0.000000e+00
    outer loop
      vertex   -5.195025e-02 -2.090608e-02 8.175771e-02
      vertex   -5.195025e-02 -4.706787e-02 1.200414e-01
      vertex   -5.195025e-02 -2.090608e-02 1.200414e-01
    endloop
  endfacet
  facet normal -1.000000e+00 0.000000e+00 0.000000e+00
    outer loop
      vertex   1.280497e-01 -2.090608e-02 8.175771e-02
      vertex   1.280497e-01 -2.090608e-02 1.200414e-01
      vertex   1.280497e-01 4.293213e-02 8.175771e-02
    endloop
  endfacet
  facet normal -1.000000e+00 0.000000e+00 0.000000e+00
    outer loop
      vertex   1.280497e-01 4.293213e-02 8.175771e-02
      vertex   1.280497e-01 -2.090608e-02 1.200414e-01
      vertex   1.280497e-01 4.293213e-02 1.200414e-01
    endloop
  endfacet
  facet normal 0.000000e+00 -1.000000e+00 0.000000e+00
    outer loop
      vertex   1.557784e-01 -4.706787e-02 8.175771e-02
      vertex   1.557784e-01 -4.706787e-02 1.200414e-01
      vertex   -5.195025e-02 -4.706787e-02 8.175771e-02
    endloop
  endfacet
  facet normal 0.000000e+00 -1.000000e+00 0.000000e+00
    outer loop
      vertex   -5.195025e-02 -4.706787e-02 8.175771e-02
      vertex   1.557784e-01 -4.706787e-02 1.200414e-01
      vertex   -5.195025e-02 -4.706787e-02 1.200414e-01
    endloop
  endfacet
  facet normal 0.000000e+00 0.000000e+00 -1.000000e+00
    outer loop
      vertex   8.577839e-02 4.293213e-02 8.175771e-02
      vertex   8.577839e-02 8.000000e-02 8.175771e-02
      vertex   1.280497e-01 4.293213e-02 8.175771e-02
    endloop
  endfacet
  facet normal 0.000000e+00 0.000000e+00 -1.000000e+00
    outer loop
      vertex   1.280497e-01 4.293213e-02 8.175771e-02
      vertex   8.577839e-02 8.000000e-02 8.175771e-02
      vertex   1.557784e-01 8.000000e-02 8.175771e-02
    endloop
  endfacet
  facet normal 0.000000e+00 0.000000e+00 -1.000000e+00
    outer loop
      vertex   1.280497e-01 4.293213e-02 8.175771e-02
      vertex   1.557784e-01 8.000000e-02 8.175771e-02
      vertex   1.557784e-01 -4.706787e-02 8.175771e-02
    endloop
  endfacet
  facet normal 0.000000e+00 0.000000e+00 -1.000000e+00
    outer loop
      vertex   1.280497e-01 4.293213e-02 8.175771e-02
      vertex   1.557784e-01 -4.706787e-02 8.175771e-02
      vertex   1.280497e-01 -2.090608e-02 8.175771e-02
    endloop
  endfacet
  facet normal 0.000000e+00 -0.000000e+00 -1.000000e+00
    outer loop
      vertex   1.280497e-01 -2.090608e-02 8.175771e-02
      vertex   1.557784e-01 -4.706787e-02 8.175771e-02
      vertex   -5.195025e-02 -4.706787e-02 8.175771e-02
    endloop
  endfacet
  facet normal -0.000000e+00 0.000000e+00 -1.000000e+00
    outer loop
      vertex   1.280497e-01 -2.090608e-02 8.175771e-02
      vertex   -5.195025e-02 -4.706787e-02 8.175771e-02
      vertex   -5.195025e-02 -2.090608e-02 8.175771e-02
    endloop
  endfacet
  facet normal 1.000000e+00 0.000000e+00 -0.000000e+00
    outer loop
      vertex   1.557784e-01 8.000000e-02 8.175771e-02
      vertex   1.557784e-01 8.000000e-02 1.200414e-01
      vertex   1.557784e-01 -4.706787e-02 8.175771e-02
    endloop
  endfacet
  facet normal 1.000000e+00 0.000000e+00 0.000000e+00
    outer loop
      vertex   1.557784e-01 -4.706787e-02 8.175771e-02
      vertex   1.557784e-01 8.000000e-02 1.200414e-01
      vertex   1.557784e-01 -4.706787e-02 1.200414e-01
    endloop
  endfacet
  facet normal -1.000000e+00 0.000000e+00 0.000000e+00
    outer loop
      vertex   5.898502e-02 8.000000e-02 5.004139e-02
      vertex   5.898502e-02 4.293213e-02 5.004139e-02
      vertex   5.898502e-02 8.000000e-02 1.200414e-01
    endloop
  endfacet
  facet normal -1.000000e+00 -0.000000e+00 0.000000e+00
    outer loop
      vertex   5.898502e-02 8.000000e-02 1.200414e-01
      vertex   5.898502e-02 4.293213e-02 5.004139e-02
      vertex   5.898502e-02 4.293213e-02 1.200414e-01
    endloop
  endfacet
  facet normal 0.000000e+00 -0.000000e+00 1.000000e+00
    outer loop
      vertex   1.557784e-01 -4.706787e-02 1.200414e-01
      vertex   1.557784e-01 8.000000e-02 1.200414e-01
      vertex   1.280497e-01 4.293213e-02 1.200414e-01
    endloop
  endfacet
  facet normal 0.000000e+00 -0.000000e+00 1.000000e+00
    outer loop
      vertex   1.280497e-01 4.293213e-02 1.200414e-01
      vertex   1.557784e-01 8.000000e-02 1.200414e-01
      vertex   5.898502e-02 8.000000e-02 1.200414e-01
    endloop
  endfacet
  facet normal 0.000000e+00 0.000000e+00 1.000000e+00
    outer loop
      vertex   1.280497e-01 4.293213e-02 1.200414e-01
      vertex   5.898502e-02 8.000000e-02 1.200414e-01
      vertex   5.898502e-02 4.293213e-02 1.200414e-01
    endloop
  endfacet
  facet normal 0.000000e+00 0.000000e+00 1.000000e+00
    outer loop
      vertex   1.280497e-01 4.293213e-02 1.200414e-01
      vertex   1.280497e-01 -2.090608e-02 1.200414e-01
      vertex   1.557784e-01 -4.706787e-02 1.200414e-01
    endloop
  endfacet
  facet normal 0.000000e+00 0.000000e+00 1.000000e+00
    outer loop
      vertex   1.557784e-01 -4.706787e-02 1.200414e-01
      vertex   1.280497e-01 -2.090608e-02 1.200414e-01
      vertex   -5.195025e-02 -4.706787e-02 1.200414e-01
    endloop
  endfacet
  facet normal 0.000000e+00 0.000000e+00 1.000000e+00
    outer loop
      vertex   -5.195025e-02 -4.706787e-02 1.200414e-01
      vertex   1.280497e-01 -2.090608e-02 1.200414e-01
      vertex   -5.195025e-02 -2.090608e-02 1.200414e-01
    endloop
  endfacet
  facet normal 0.000000e+00 -1.000000e+00 0.000000e+00
    outer loop
      vertex   1.280497e-01 4.293213e-02 8.175771e-02
      vertex   1.280497e-01 4.293213e-02 1.200414e-01
      vertex   8.577839e-02 4.293213e-02 8.175771e-02
    endloop
  endfacet
  facet normal 0.000000e+00 -1.000000e+00 0.000000e+00
    outer loop
      vertex   8.577839e-02 4.293213e-02 8.175771e-02
      vertex   1.280497e-01 4.293213e-02 1.200414e-01
      vertex   5.898502e-02 4.293213e-02 1.200414e-01
    endloop
  endfacet
  facet normal -0.000000e+00 -1.000000e+00 0.000000e+00
    outer loop
      vertex   8.577839e-02 4.293213e-02 8.175771e-02
      vertex   5.898502e-02 4.293213e-02 1.200414e-01
      vertex   5.898502e-02 4.293213e-02 5.004139e-02
    endloop
  endfacet
  facet normal 0.000000e+00 -1.000000e+00 0.000000e+00
    outer loop
      vertex   3.577839e-02 4.293213e-02 5.004139e-02
      vertex   3.577839e-02 4.293213e-02 0.000000e+00
      vertex   5.898502e-02 4.293213e-02 5.004139e-02
    endloop
  endfacet
  facet normal 0.000000e+00 -1.000000e+00 -0.000000e+00
    outer loop
      vertex   5.898502e-02 4.293213e-02 5.004139e-02
      vertex   3.577839e-02 4.293213e-02 0.000000e+00
      vertex   8.577839e-02 4.293213e-02 0.000000e+00
    endloop
  endfacet
  facet normal 0.000000e+00 -1.000000e+00 0.000000e+00
    outer loop
      vertex   5.898502e-02 4.293213e-02 5.004139e-02
      vertex   8.577839e-02 4.293213e-02 0.000000e+00
      vertex   8.577839e-02 4.293213e-02 8.175771e-02
    endloop
  endfacet
  facet normal 1.000000e+00 -0.000000e+00 0.000000e+00
    outer loop
      vertex   8.577839e-02 4.293213e-02 8.175771e-02
      vertex   8.577839e-02 4.293213e-02 0.000000e+00
      vertex   8.577839e-02 8.000000e-02 8.175771e-02
    endloop
  endfacet
  facet normal 1.000000e+00 0.000000e+00 0.000000e+00
    outer loop
      vertex   8.577839e-02 8.000000e-02 8.175771e-02
      vertex   8.577839e-02 4.293213e-02 0.000000e+00
      vertex   8.577839e-02 8.000000e-02 0.000000e+00
    endloop
  endfacet
  facet normal -1.000000e+00 0.000000e+00 0.000000e+00
    outer loop
      vertex   0.000000e+00 0.000000e+00 0.000000e+00
      vertex   0.000000e+00 0.000000e+00 5.004139e-02
      vertex   0.000000e+00 8.000000e-02 0.000000e+00
    endloop
  endfacet
  facet normal -1.000000e+00 0.000000e+00 0.000000e+00
    outer loop
      vertex   0.000000e+00 8.000000e-02 0.000000e+00
      vertex   0.000000e+00 0.000000e+00 5.004139e-02
      vertex   0.000000e+00 8.000000e-02 5.004139e-02
    endloop
  endfacet
  facet normal 0.000000e+00 0.000000e+00 -1.000000e+00
    outer loop
      vertex   3.577839e-02 0.000000e+00 0.000000e+00
      vertex   0.000000e+00 0.000000e+00 0.000000e+00
      vertex   3.577839e-02 4.293213e-02 0.000000e+00
    endloop
  endfacet
  facet normal -0.000000e+00 0.000000e+00 -1.000000e+00
    outer loop
      vertex   3.577839e-02 4.293213e-02 0.000000e+00
      vertex   0.000000e+00 0.000000e+00 0.000000e+00
      vertex   0.000000e+00 8.000000e-02 0.000000e+00
    endloop
  endfacet
  facet normal 0.000000e+00 0.000000e+00 -1.000000e+00
    outer loop
      vertex   3.577839e-02 4.293213e-02 0.000000e+00
      vertex   0.000000e+00 8.000000e-02 0.000000e+00
      vertex   8.577839e-02 8.000000e-02 0.000000e+00
    endloop
  endfacet
  facet normal 0.000000e+00 -0.000000e+00 -1.000000e+00
    outer loop
      vertex   8.577839e-02 8.000000e-02 0.000000e+00
      vertex   8.577839e-02 4.293213e-02 0.000000e+00
      vertex   3.577839e-02 4.293213e-02 0.000000e+00
    endloop
  endfacet
  facet normal 1.000000e+00 0.000000e+00 -0.000000e+00
    outer loop
      vertex   3.577839e-02 4.293213e-02 0.000000e+00
      vertex   3.577839e-02 4.293213e-02 5.004139e-02
      vertex   3.577839e-02 0.000000e+00 0.000000e+00
    endloop
  endfacet
  facet normal 1.000000e+00 0.000000e+00 0.000000e+00
    outer loop
      vertex   3.577839e-02 0.000000e+00 0.000000e+00
      vertex   3.577839e-02 4.293213e-02 5.004139e-02
      vertex   3.577839e-02 0.000000e+00 5.004139e-02
    endloop
  endfacet
  facet normal 0.000000e+00 -0.000000e+00 1.000000e+00
    outer loop
      vertex   5.898502e-02 4.293213e-02 5.004139e-02
      vertex   5.898502e-02 8.000000e-02 5.004139e-02
      vertex   3.577839e-02 4.293213e-02 5.004139e-02
    endloop
  endfacet
  facet normal 0.000000e+00 -0.000000e+00 1.000000e+00
    outer loop
      vertex   3.577839e-02 4.293213e-02 5.004139e-02
      vertex   5.898502e-02 8.000000e-02 5.004139e-02
      vertex   0.000000e+00 8.000000e-02 5.004139e-02
    endloop
  endfacet
  facet normal 0.000000e+00 0.000000e+00 1.000000e+00
    outer loop
      vertex   3.577839e-02 4.293213e-02 5.004139e-02
      vertex   0.000000e+00 8.000000e-02 5.004139e-02
      vertex   0.000000e+00 0.000000e+00 5.004139e-02
    endloop
  endfacet
  facet normal 0.000000e+00 0.000000e+00 1.000000e+00
    outer loop
      vertex   0.000000e+00 0.000000e+00 5.004139e-02
      vertex   3.577839e-02 0.000000e+00 5.004139e-02
      vertex   3.577839e-02 4.293213e-02 5.004139e-02
    endloop
  endfacet
  facet normal -0.000000e+00 1.000000e+00 0.000000e+00
    outer loop
      vertex   0.000000e+00 8.000000e-02 5.004139e-02
      vertex   5.898502e-02 8.000000e-02 5.004139e-02
      vertex   0.000000e+00 8.000000e-02 0.000000e+00
    endloop
  endfacet
  facet normal 0.000000e+00 1.000000e+00 0.000000e+00
    outer loop
      vertex   0.000000e+00 8.000000e-02 0.000000e+00
      vertex   5.898502e-02 8.000000e-02 5.004139e-02
      vertex   8.577839e-02 8.000000e-02 0.000000e+00
    endloop
  endfacet
  facet normal 0.000000e+00 1.000000e+00 -0.000000e+00
    outer loop
      vertex   8.577839e-02 8.000000e-02 0.000000e+00
      vertex   5.898502e-02 8.000000e-02 5.004139e-02
      vertex   8.577839e-02 8.000000e-02 8.175771e-02
    endloop
  endfacet
  facet normal 0.000000e+00 1.000000e+00 0.000000e+00
    outer loop
      vertex   8.577839e-02 8.000000e-02 8.175771e-02
      vertex   5.898502e-02 8.000000e-02 5.004139e-02
      vertex   5.898502e-02 8.000000e-02 1.200414e-01
    endloop
  endfacet
  facet normal 0.000000e+00 1.000000e+00 -0.000000e+00
    outer loop
      vertex   8.577839e-02 8.000000e-02 8.175771e-02
      vertex   5.898502e-02 8.000000e-02 1.200414e-01
      vertex   1.557784e-01 8.000000e-02 1.200414e-01
    endloop
  endfacet
  facet normal 0.000000e+00 1.000000e+00 0.000000e+00
    outer loop
      vertex   1.557784e-01 8.000000e-02 1.200414e-01
      vertex   1.557784e-01 8.000000e-02 8.175771e-02
      vertex   8.577839e-02 8.000000e-02 8.175771e-02
    endloop
  endfacet
  facet normal -0.000000e+00 -1.000000e+00 -0.000000e+00
    outer loop
      vertex   3.577839e-02 0.000000e+00 5.004139e-02
      vertex   0.000000e+00 0.000000e+00 5.004139e-02
      vertex   3.577839e-02 0.000000e+00 0.000000e+00
    endloop
  endfacet
  facet normal 0.000000e+00 -1.000000e+00 0.000000e+00
    outer loop
      vertex   3.577839e-02 0.000000e+00 0.000000e+00
      vertex   0.000000e+00 0.000000e+00 5.004139e-02
      vertex   0.000000e+00 0.000000e+00 0.000000e+00
    endloop
  endfacet
endsolid
