solid ASCII
  facet normal 0.000000e+00 8.660254e-01 -5.000000e-01
    outer loop
      vertex   1.000000e-01 1.000000e-01 -1.577350e-01
      vertex   1.000000e-01 1.500000e-01 -7.113249e-02
      vertex   2.000000e-01 1.000000e-01 -1.577350e-01
    endloop
  endfacet
  facet normal 0.000000e+00 8.660254e-01 -5.000000e-01
    outer loop
      vertex   2.000000e-01 1.000000e-01 -1.577350e-01
      vertex   1.000000e-01 1.500000e-01 -7.113249e-02
      vertex   2.000000e-01 1.500000e-01 -7.113249e-02
    endloop
  endfacet
  facet normal 0.000000e+00 -8.660254e-01 -5.000000e-01
    outer loop
      vertex   1.000000e-01 5.000000e-02 -7.113249e-02
      vertex   1.000000e-01 1.000000e-01 -1.577350e-01
      vertex   2.000000e-01 5.000000e-02 -7.113249e-02
    endloop
  endfacet
  facet normal 0.000000e+00 -8.660254e-01 -5.000000e-01
    outer loop
      vertex   2.000000e-01 5.000000e-02 -7.113249e-02
      vertex   1.000000e-01 1.000000e-01 -1.577350e-01
      vertex   2.000000e-01 1.000000e-01 -1.577350e-01
    endloop
  endfacet
  facet normal 0.000000e+00 -1.387779e-16 1.000000e+00
    outer loop
      vertex   1.000000e-01 1.500000e-01 -7.113249e-02
      vertex   1.000000e-01 5.000000e-02 -7.113249e-02
      vertex   2.000000e-01 1.500000e-01 -7.113249e-02
    endloop
  endfacet
  facet normal 0.000000e+00 -1.387779e-16 1.000000e+00
    outer loop
      vertex   2.000000e-01 1.500000e-01 -7.113249e-02
      vertex   1.000000e-01 5.000000e-02 -7.113249e-02
      vertex   2.000000e-01 5.000000e-02 -7.113249e-02
    endloop
  endfacet
  facet normal 1.000000e+00 0.000000e+00 0.000000e+00
    outer loop
      vertex   2.000000e-01 1.500000e-01 -7.113249e-02
      vertex   2.000000e-01 5.000000e-02 -7.113249e-02
      vertex   2.000000e-01 1.000000e-01 -1.577350e-01
    endloop
  endfacet
  facet normal -1.000000e+00 0.000000e+00 0.000000e+00
    outer loop
      vertex   1.000000e-01 5.000000e-02 -7.113249e-02
      vertex   1.000000e-01 1.500000e-01 -7.113249e-02
      vertex   1.000000e-01 1.000000e-01 -1.577350e-01
    endloop
  endfacet
endsolid
